# xmcd CD database file
#
# Track frame offsets:
#	187
#	22370
#	45000
#	66537
#	81297
#	98582
#	121885
#	141815
#	160165
#	181955
#	200035
#	219892
#	237310
#
# Disc length: 3403 seconds
#
# Revision: 0
# Processed by: cddbd v1.5PL3 Copyright (c) Steve Scherf et al.
# Submitted via: CDex 1.51
#
DISCID=b20d490d
DTITLE=Lisette Melendez - IMAGINATION
DYEAR=1997
DGENRE=Pop
TTITLE0=I LIKE THE WAY YOU DO
TTITLE1=ECSTASY
TTITLE2=NEVER EVER
TTITLE3=NO MORE LONELY NIGHTS
TTITLE4=MAKE THE WAY(NEW YORK RADIO)
TTITLE5=TIME PASSES BY(TRADITIONAL MIX)
TTITLE6=FOREVER
TTITLE7=COME AND TAKE MY HEART
TTITLE8=I LIKE WHAT YOU'RE DOING TO ME
TTITLE9=IMAGINATION
TTITLE10=MAKE THE WAY(NEW YORK DUB)
TTITLE11=MAKE THE WAY(WORLD RADIO)
TTITLE12=TIME PASSES BY(TIME WARP MIX)
EXTD=YEAR: 1997
EXTT0=
EXTT1=
EXTT2=
EXTT3=
EXTT4=
EXTT5=
EXTT6=
EXTT7=
EXTT8=
EXTT9=
EXTT10=
EXTT11=
EXTT12=
PLAYORDER=
